<?xml version="1.0" encoding="iso-8859-1"?>
<!-- Generator: Adobe Illustrator 17.1.0, SVG Export Plug-In . SVG Version: 6.00 Build 0)  -->
<!DOCTYPE svg PUBLIC "-//W3C//DTD SVG 1.1//EN" "http://www.w3.org/Graphics/SVG/1.1/DTD/svg11.dtd">
<svg version="1.1" id="Capa_1" xmlns="http://www.w3.org/2000/svg" xmlns:xlink="http://www.w3.org/1999/xlink" x="0px" y="0px"
	 viewBox="0 0 207.202 207.202" style="enable-background:new 0 0 207.202 207.202;" xml:space="preserve">
<path d="M121.455,207.202c-4.619,0-8.927-2.35-11.446-6.405c-1.386-2.231-3.78-3.563-6.407-3.563c-2.626,0-5.022,1.332-6.408,3.563
	c-3.005,4.839-8.559,7.251-14.146,6.137c-5.588-1.111-9.796-5.462-10.721-11.083c-0.427-2.592-2.13-4.739-4.557-5.744
	c-2.426-1.005-5.149-0.691-7.284,0.84c-4.628,3.32-10.68,3.423-15.418,0.257c-4.737-3.166-6.96-8.796-5.664-14.343
	c0.598-2.558-0.154-5.193-2.011-7.051c-1.857-1.857-4.49-2.607-7.05-2.012c-5.545,1.302-11.177-0.925-14.343-5.663
	c-3.165-4.737-3.064-10.789,0.257-15.419c1.531-2.134,1.845-4.856,0.84-7.283c-1.005-2.426-3.152-4.129-5.744-4.556
	c-5.623-0.925-9.973-5.134-11.084-10.723c-1.111-5.587,1.298-11.14,6.138-14.146c2.231-1.386,3.563-3.78,3.563-6.407
	s-1.332-5.021-3.563-6.407c-4.84-3.006-7.249-8.559-6.138-14.146c1.111-5.589,5.462-9.798,11.084-10.723
	c2.592-0.427,4.739-2.13,5.744-4.556c1.005-2.427,0.691-5.149-0.84-7.283c-3.321-4.63-3.422-10.682-0.256-15.419
	c3.165-4.737,8.793-6.964,14.343-5.663c2.556,0.597,5.193-0.154,7.05-2.012c1.857-1.857,2.609-4.493,2.011-7.051
	C38.107,24.796,40.331,19.166,45.068,16c4.737-3.165,10.79-3.064,15.418,0.257c2.133,1.529,4.856,1.844,7.283,0.84
	c2.427-1.005,4.13-3.152,4.557-5.744c0.925-5.621,5.133-9.972,10.721-11.083c5.588-1.116,11.141,1.297,14.146,6.137l0,0
	c1.386,2.231,3.781,3.563,6.408,3.563c2.627,0,5.021-1.332,6.407-3.563c3.006-4.839,8.552-7.247,14.146-6.138
	c5.588,1.111,9.797,5.462,10.722,11.084c0.427,2.592,2.13,4.739,4.556,5.744c2.427,1.006,5.15,0.69,7.283-0.84
	c4.63-3.321,10.682-3.422,15.419-0.257c4.737,3.166,6.96,8.796,5.663,14.343c-0.598,2.558,0.154,5.193,2.012,7.051
	s4.494,2.608,7.051,2.012c5.543-1.302,11.177,0.925,14.343,5.663c3.165,4.737,3.064,10.789-0.257,15.419
	c-1.531,2.134-1.845,4.856-0.84,7.283c1.005,2.426,3.152,4.129,5.744,4.556c5.622,0.925,9.973,5.134,11.084,10.722
	c1.11,5.588-1.299,11.141-6.138,14.146c-2.231,1.386-3.563,3.78-3.563,6.407s1.332,5.021,3.563,6.407
	c4.839,3.006,7.248,8.559,6.138,14.146c-1.111,5.588-5.462,9.797-11.084,10.722c-2.592,0.427-4.739,2.13-5.744,4.556
	c-1.005,2.427-0.691,5.149,0.84,7.283c3.321,4.63,3.422,10.682,0.257,15.419c-3.166,4.736-8.795,6.963-14.343,5.663
	c-2.557-0.596-5.193,0.154-7.051,2.012s-2.609,4.493-2.012,7.051c1.297,5.547-0.926,11.177-5.663,14.343
	c-4.735,3.165-10.789,3.064-15.419-0.257c-2.134-1.53-4.856-1.845-7.283-0.84c-2.426,1.005-4.129,3.152-4.556,5.744
	c-0.925,5.622-5.134,9.973-10.722,11.084C123.25,207.114,122.346,207.201,121.455,207.202z M103.601,191.233
	c4.716,0,9.017,2.392,11.505,6.397c2.031,3.272,5.404,3.91,7.878,3.419c2.478-0.493,5.347-2.373,5.973-6.174
	c0.765-4.652,3.823-8.508,8.18-10.313s9.246-1.24,13.077,1.508c3.129,2.246,6.487,1.546,8.588,0.143
	c2.1-1.403,4.03-4.238,3.154-7.988c-1.073-4.592,0.276-9.324,3.61-12.659c3.335-3.334,8.067-4.686,12.659-3.61
	c3.754,0.875,6.585-1.055,7.988-3.154s2.103-5.459-0.143-8.588c-2.749-3.832-3.313-8.721-1.508-13.077s5.66-7.415,10.313-8.18
	c3.801-0.626,5.681-3.495,6.174-5.973c0.492-2.477-0.147-5.847-3.419-7.878c-4.006-2.488-6.397-6.789-6.397-11.505
	s2.392-9.017,6.397-11.505c3.271-2.031,3.911-5.401,3.419-7.878c-0.493-2.478-2.373-5.347-6.174-5.973
	c-4.652-0.765-8.508-3.823-10.313-8.18s-1.241-9.245,1.508-13.077c2.245-3.129,1.546-6.488,0.143-8.588s-4.234-4.029-7.988-3.154
	c-4.592,1.078-9.324-0.276-12.659-3.61c-3.334-3.335-4.684-8.067-3.61-12.659c0.876-3.75-1.055-6.585-3.154-7.988
	c-2.101-1.404-5.46-2.103-8.588,0.143c-3.832,2.75-8.724,3.312-13.077,1.508c-4.356-1.805-7.415-5.66-8.18-10.313
	c-0.626-3.801-3.495-5.681-5.973-6.174c-2.476-0.492-5.847,0.146-7.878,3.419c-2.488,4.006-6.789,6.397-11.505,6.397
	s-9.017-2.392-11.504-6.397c-2.032-3.272-5.401-3.908-7.879-3.419c-2.477,0.493-5.346,2.373-5.971,6.174
	c-0.766,4.652-3.824,8.508-8.181,10.313c-4.356,1.805-9.246,1.241-13.077-1.508c-3.129-2.245-6.488-1.545-8.587-0.143
	s-4.031,4.238-3.154,7.988c1.073,4.592-0.277,9.324-3.611,12.659c-3.334,3.334-8.068,4.686-12.658,3.61
	c-3.751-0.876-6.586,1.055-7.989,3.154c-1.403,2.1-2.103,5.459,0.143,8.588c2.749,3.832,3.313,8.721,1.508,13.077
	s-5.66,7.415-10.313,8.18c-3.8,0.626-5.681,3.495-6.173,5.973c-0.492,2.477,0.147,5.847,3.418,7.878
	c4.006,2.488,6.398,6.789,6.398,11.505s-2.392,9.017-6.398,11.505c-3.271,2.031-3.911,5.401-3.418,7.878
	c0.493,2.478,2.373,5.347,6.174,5.973c4.653,0.765,8.508,3.823,10.313,8.18s1.241,9.245-1.508,13.077
	c-2.245,3.129-1.546,6.488-0.143,8.588c1.402,2.1,4.234,4.028,7.988,3.154c4.593-1.074,9.324,0.276,12.659,3.61
	c3.334,3.335,4.685,8.067,3.611,12.659c-0.877,3.75,1.055,6.586,3.154,7.988c2.099,1.402,5.457,2.103,8.587-0.143
	c3.833-2.749,8.722-3.313,13.078-1.508c4.357,1.805,7.415,5.66,8.181,10.313c0.625,3.801,3.494,5.681,5.971,6.174
	c2.478,0.489,5.847-0.147,7.879-3.419C94.584,193.625,98.885,191.233,103.601,191.233z M128.717,144.018
	c-8.437,0-15.301-6.864-15.301-15.301s6.864-15.301,15.301-15.301s15.301,6.864,15.301,15.301S137.154,144.018,128.717,144.018z
	 M128.717,119.417c-5.129,0-9.301,4.172-9.301,9.301c0,5.129,4.172,9.301,9.301,9.301s9.301-4.172,9.301-9.301
	C138.018,123.589,133.846,119.417,128.717,119.417z M66.185,144.018c-0.768,0-1.536-0.293-2.121-0.879
	c-1.172-1.171-1.172-3.071,0-4.242l74.833-74.834c1.172-1.172,3.07-1.172,4.242,0c1.172,1.171,1.172,3.071,0,4.242l-74.833,74.834
	C67.72,143.725,66.952,144.018,66.185,144.018z M78.485,93.786c-8.437,0-15.3-6.864-15.3-15.301s6.864-15.301,15.3-15.301
	s15.3,6.864,15.3,15.301S86.921,93.786,78.485,93.786z M78.485,69.184c-5.128,0-9.3,4.172-9.3,9.301s4.172,9.301,9.3,9.301
	s9.3-4.172,9.3-9.301S83.613,69.184,78.485,69.184z"/>
<g>
</g>
<g>
</g>
<g>
</g>
<g>
</g>
<g>
</g>
<g>
</g>
<g>
</g>
<g>
</g>
<g>
</g>
<g>
</g>
<g>
</g>
<g>
</g>
<g>
</g>
<g>
</g>
<g>
</g>
</svg>
