<?xml version="1.0" ?><svg width="32px" height="32px" viewBox="0 0 32 32" xmlns="http://www.w3.org/2000/svg"><defs><style>.cls-1{fill:#005792;}.cls-2{fill:none;}</style></defs><title/><g id="Lock"><path class="cls-1" d="M28,16.63v5.69a5.85,5.85,0,0,1-.31,1.89,5.52,5.52,0,0,1-3.29,3.46,4.88,4.88,0,0,1-1.8.33H9.4a5.44,5.44,0,0,1-5.09-3.79H23.2A1.24,1.24,0,0,0,24.4,23V9.05h.13a9.49,9.49,0,0,1,.91,2.77A5.71,5.71,0,0,1,28,16.63Z"/><path class="cls-2" d="M24.62,12.75h0a4,4,0,0,0-2-.54H9.4a4,4,0,0,0-2,.54A4.49,4.49,0,0,0,5.2,16.63v5.69a4.32,4.32,0,0,0,4.2,4.42H22.6a4.32,4.32,0,0,0,4.2-4.42V16.63A4.49,4.49,0,0,0,24.62,12.75Zm-8,8.3a.6.6,0,1,1-1.2,0V18.53a.6.6,0,1,1,1.2,0Z"/><path class="cls-2" d="M8.45,11.05,8.68,11A5.81,5.81,0,0,1,9.4,11H22.6a5.52,5.52,0,0,1,.71.05l.24,0a3.84,3.84,0,0,1,.46.11h.07a7.89,7.89,0,0,0-7.48-5.9H15.4A7.59,7.59,0,0,0,9.88,7.67a8.34,8.34,0,0,0-2,3.49H8Z"/><path d="M25.44,11.82a9.49,9.49,0,0,0-.91-2.77A8.92,8.92,0,0,0,16.6,4H15.4A8.71,8.71,0,0,0,9,6.78a9.46,9.46,0,0,0-2.47,5A5.74,5.74,0,0,0,4,16.63v5.69a5.85,5.85,0,0,0,.31,1.89A5.44,5.44,0,0,0,9.4,28H22.6a4.88,4.88,0,0,0,1.8-.33,5.52,5.52,0,0,0,3.29-3.46A5.85,5.85,0,0,0,28,22.32V16.63A5.71,5.71,0,0,0,25.44,11.82ZM9.88,7.66a7.61,7.61,0,0,1,5.52-2.4h1.2a7.89,7.89,0,0,1,7.48,5.9H24a2.83,2.83,0,0,0-.47-.1L23.32,11A4.36,4.36,0,0,0,22.6,11H9.4a5.81,5.81,0,0,0-.72.05l-.23.05a2.83,2.83,0,0,0-.47.1H7.91A8.52,8.52,0,0,1,9.88,7.66ZM24.4,26.29a3.67,3.67,0,0,1-1.8.45H9.4a4.17,4.17,0,0,1-3.78-2.53,4.26,4.26,0,0,1-.42-1.89V16.63a4.46,4.46,0,0,1,2.18-3.88,4,4,0,0,1,2-.54H22.6a3.91,3.91,0,0,1,1.8.43l.22.11a4.49,4.49,0,0,1,2.18,3.88v5.69a4.26,4.26,0,0,1-.42,1.89A4.14,4.14,0,0,1,24.4,26.29Z"/><path d="M16,17.89a.62.62,0,0,0-.6.64v2.52a.6.6,0,1,0,1.2,0V18.53A.62.62,0,0,0,16,17.89Z"/></g></svg>