<svg xmlns="http://www.w3.org/2000/svg" xmlns:xlink="http://www.w3.org/1999/xlink" width="195" height="76" viewBox="0 0 195 76">
  <defs>
    <filter id="base" x="0" y="0" width="195" height="76" filterUnits="userSpaceOnUse">
      <feOffset dy="5" input="SourceAlpha"/>
      <feGaussianBlur stdDeviation="5" result="blur"/>
      <feFlood flood-color="#727c8e" flood-opacity="0.153"/>
      <feComposite operator="in" in2="blur"/>
      <feComposite in="SourceGraphic"/>
    </filter>
  </defs>
  <g id="share_this" data-name="share this" transform="translate(15 10)">
    <g transform="matrix(1, 0, 0, 1, -15, -10)" filter="url(#base)">
      <rect id="base-2" data-name="base" width="165" height="46" rx="23" transform="translate(15 10)" fill="#fff"/>
    </g>
    <text id="SHARE_THIS-2" data-name="SHARE THIS" transform="translate(65 28)" fill="#727c8e" font-size="12" font-family="Helvetica-Bold, Helvetica" font-weight="700" letter-spacing="0.06em"><tspan x="-39.577" y="0">SHARE THIS</tspan></text>
    <g id="icon" transform="translate(-6.266 -381.937)">
      <rect id="Rectangle_2" data-name="Rectangle 2" width="28.797" height="29.62" rx="14.399" transform="translate(134.266 389.937)" fill="#727c8e"/>
      <g id="share-arrow" transform="translate(94.539 396.278)">
        <g id="Group_27" data-name="Group 27" transform="translate(47.727 0)">
          <path id="Path_14" data-name="Path 14" d="M117.438,12.71a.724.724,0,0,0,.722-.722V2.211l3.079,2.742a.724.724,0,1,0,.962-1.082L118.051.179a.726.726,0,0,0-.926-.024.726.726,0,0,0-.313.289l-3.6,3.451a.723.723,0,1,0,1,1.046l2.5-2.405v9.452A.724.724,0,0,0,117.438,12.71Z" transform="translate(-111.658 2)" fill="#fff" stroke="#fff" stroke-width="0.7"/>
        </g>
      </g>
    </g>
  </g>
</svg>
